<mxfile host="app.diagrams.net" modified="2023-06-06T10:13:48.910Z" agent="Mozilla/5.0 (Windows NT 10.0; Win64; x64) AppleWebKit/537.36 (KHTML, like Gecko) Chrome/113.0.0.0 Safari/537.36 Edg/113.0.1774.50" version="21.3.6" etag="lnezZhhPdaeM-QFWmW2b" type="github">
  <diagram name="Page-1" id="08llDU7-NNFUK5n5-dFt">
    <mxGraphModel>
      <root>
        <mxCell id="0" />
        <mxCell id="1" parent="0" />
      </root>
    </mxGraphModel>
  </diagram>
</mxfile>
